<?xml version="1.0" encoding="UTF-8"?>
<svg id="Lager_1" xmlns="http://www.w3.org/2000/svg" version="1.1" viewBox="0 0 72.1 44.41">
  <!-- Generator: Adobe Illustrator 29.7.1, SVG Export Plug-In . SVG Version: 2.1.1 Build 8)  -->
  <defs>
    <style>
      .st0, .st1 {
        fill: #1d1d1b;
      }

      .st1, .st2 {
        stroke: #1d1d1b;
        stroke-miterlimit: 10;
      }

      .st2 {
        fill: none;
      }
    </style>
  </defs>
  <path class="st2" d="M6.2,23.98l-1.28,3.91c-.13.41-.51.68-.93.68H1.14c0-.11,0-.21.01-.32.11-1.69,1.26-3.14,2.88-3.62l2.09-.62.08-.03Z"/>
  <path class="st2" d="M27.46,12.87v7.14c0,.79-.64,1.43-1.43,1.43l-15.04.11,4.4-10.11h10.63c.79,0,1.44.64,1.44,1.43Z"/>
  <path class="st2" d="M71.03,26.74v4.53h-2.64c-.34,0-.62-.24-.62-.54v-3.44c0-.3.28-.55.62-.55h2.64Z"/>
  <path class="st1" d="M68.39,26.74h2.64V4.63c0-1.93-1.57-3.49-3.5-3.49H14.48c-2.3,0-4.16,1.86-4.16,4.15v2.64c0,.95.77,1.71,1.72,1.71h4.13l-.78,1.8h10.63c.79,0,1.44.64,1.44,1.43v7.14c0,.79-.64,1.43-1.43,1.43l-15.04.11c-.22.59-.7,1.04-1.29,1.24l-3.5,1.19-1.28,3.91c-.13.41-.51.68-.93.68H1.14v8.06c0,1.17.95,2.12,2.12,2.12h2.93c0-3.69,2.99-6.68,6.69-6.68s6.68,2.99,6.68,6.68c0,.07,0,.14-.01.21h32.94c-.01-.07-.01-.14-.01-.21,0-3.69,2.99-6.68,6.68-6.68s6.69,2.99,6.69,6.68h3.05c1.18,0,2.13-.95,2.13-2.12v-5.36h-2.64c-.34,0-.62-.24-.62-.54v-3.44c0-.3.28-.55.62-.55ZM20.86,6.87c0,.47-.43.86-.97.86h-6.05c-.53,0-.96-.39-.96-.86v-2.18c0-.87.78-1.57,1.74-1.57h5.27c.54,0,.97.39.97.87v2.88ZM49.84,20.04c0,.8-.9,1.45-2.02,1.45h-13.56c-1.12,0-2.02-.65-2.02-1.45v-7.09c0-.8.9-1.45,2.02-1.45h13.56c1.12,0,2.02.65,2.02,1.45v7.09ZM66.21,21.49h-10.46c-.86,0-1.56-.65-1.56-1.45v-7.09c0-.8.7-1.45,1.56-1.45h10.46c.87,0,1.56.65,1.56,1.45v7.09c0,.8-.69,1.45-1.56,1.45Z"/>
  <circle class="st0" cx="12.88" cy="38.75" r="5.14"/>
  <circle class="st0" cx="59.16" cy="38.75" r="5.14"/>
</svg>