<?xml version="1.0" encoding="UTF-8"?>
<svg id="Lager_1" xmlns="http://www.w3.org/2000/svg" version="1.1" viewBox="0 0 72.1 44.41">
  <!-- Generator: Adobe Illustrator 29.7.1, SVG Export Plug-In . SVG Version: 2.1.1 Build 8)  -->
  <defs>
    <style>
      .st0 {
        stroke: #fff;
      }

      .st0, .st1, .st2 {
        stroke-miterlimit: 10;
      }

      .st0, .st2 {
        fill: #1d1d1b;
      }

      .st1 {
        fill: #fff;
      }

      .st1, .st2 {
        stroke: #1d1d1b;
      }
    </style>
  </defs>
  <path class="st2" d="M64.82,38.75h4.09c1.17,0,2.13-.95,2.13-2.13V4.63c0-1.93-1.56-3.49-3.49-3.49H14.48c-2.29,0-4.15,1.86-4.15,4.15v2.64c0,.95.77,1.71,1.71,1.71h4.13l-5.18,11.91c-.23.58-.7,1.03-1.29,1.23l-5.84,1.98c-1.63.55-2.72,2.08-2.72,3.8v8.06c0,1.17.95,2.13,2.13,2.13h3.96"/>
  <path class="st1" d="M1.14,28.57h2.85c.42,0,.8-.27.93-.68l1.28-3.92-2.17.65c-1.72.52-2.89,2.1-2.89,3.89v.05Z"/>
  <path class="st1" d="M10.99,21.55l15.03-.11c.79,0,1.43-.65,1.43-1.44v-7.13c0-.79-.64-1.44-1.44-1.44h-10.63l-4.4,10.12Z"/>
  <path class="st1" d="M32.24,12.95v7.09c0,.8.9,1.45,2.02,1.45h13.56c1.12,0,2.02-.65,2.02-1.45v-7.09c0-.8-.9-1.45-2.02-1.45h-13.56c-1.12,0-2.02.65-2.02,1.45Z"/>
  <path class="st1" d="M54.19,12.95v7.09c0,.8.7,1.45,1.56,1.45h10.46c.86,0,1.56-.65,1.56-1.45v-7.09c0-.8-.7-1.45-1.56-1.45h-10.46c-.86,0-1.56.65-1.56,1.45Z"/>
  <path class="st1" d="M71.03,26.74h-2.63c-.34,0-.62.24-.62.54v3.44c0,.3.28.54.62.54h2.63v-4.53Z"/>
  <path class="st1" d="M10.99,24.77"/>
  <path class="st1" d="M13.84,7.73h6.06c.53,0,.96-.39.96-.86v-2.88c0-.48-.43-.86-.96-.86h-5.28c-.96,0-1.74.7-1.74,1.56v2.18c0,.48.43.86.96.86Z"/>
  <path class="st1" d="M92.87,14.15"/>
  <path class="st0" d="M10.31,38.96"/>
  <line class="st1" x1="18.52" y1="38.96" x2="53.51" y2="38.96"/>
  <circle class="st0" cx="12.88" cy="38.75" r="5.66"/>
  <circle class="st0" cx="59.16" cy="38.75" r="5.66"/>
  <path class="st0" d="M87.43,41.05"/>
</svg>