<?xml version="1.0" encoding="UTF-8"?>
<svg id="Lager_1" xmlns="http://www.w3.org/2000/svg" version="1.1" viewBox="0 0 84.69 43.96">
  <!-- Generator: Adobe Illustrator 29.7.1, SVG Export Plug-In . SVG Version: 2.1.1 Build 8)  -->
  <defs>
    <style>
      .st0 {
        stroke: #fff;
      }

      .st0, .st1, .st2, .st3 {
        stroke-miterlimit: 10;
      }

      .st0, .st2 {
        fill: #1d1d1b;
      }

      .st1 {
        fill: #fff;
      }

      .st1, .st2, .st3 {
        stroke: #1d1d1b;
      }

      .st3 {
        fill: none;
      }
    </style>
  </defs>
  <path class="st3" d="M85.12,30.58"/>
  <path class="st3" d="M21.77,10.95"/>
  <line class="st3" x1="27.67" y1="35.8" x2="49.46" y2="35.8"/>
  <path class="st2" d="M65.78,35.8h14.72c1.7,0,3.07-1.38,3.07-3.07l.15-9.06c0-1.12-.61-2.16-1.6-2.7l-10.21-3.53c-1.18-.65-2.1-1.69-2.58-2.96l-5.69-10.03c-.83-2.19-2.94-3.65-5.29-3.65h-27.25c-2.3,0-4.38,1.4-5.24,3.53l-5.18,9.27c-.73,1.81-2.35,3.12-4.28,3.45l-10.91,2.71c-2.71.47-4.69,2.82-4.69,5.57v7.33c0,1.7,1.38,3.07,3.07,3.07h7.47"/>
  <path class="st1" d="M20.01,14.84h16.86c.7,0,1.56-1.11,1.56-2.49v-5.23c0-1.35-.83-2.46-1.87-2.49l-10.69-.29-5.86,10.5Z"/>
  <path class="st1" d="M44.36,6.96v5.26c0,1.45.91,2.62,2.04,2.62h14.73c1.39,0,2.84-1.82,1.93-3.46l-2.62-5.26c-.47-1.1-1.06-1.77-1.93-1.77h-12.12c-1.12,0-2.04,1.17-2.04,2.62Z"/>
  <path class="st1" d="M.81,25.97h2.07c1.73,0,3.22-1.24,3.54-2.94l.65-3.51-2.19.57c-2.39.62-4.06,2.79-4.06,5.26v.62Z"/>
  <path class="st1" d="M83.57,29.63v-4.62h-2.57c-.11,0-.2.3-.2.67v3.28c0,.37.09.67.2.67h2.57Z"/>
  <circle class="st0" cx="19.51" cy="35.8" r="8.16"/>
  <circle class="st0" cx="57.62" cy="35.8" r="8.16"/>
  <path class="st3" d="M107.74,42.88"/>
  <path class="st1" d="M5.27,14.84"/>
  <path class="st3" d="M110.95,25.35"/>
  <path class="st0" d="M108.64,31.03"/>
  <path class="st0" d="M-19.09-20.16"/>
</svg>