<?xml version="1.0" encoding="UTF-8"?>
<svg id="Lager_1" xmlns="http://www.w3.org/2000/svg" version="1.1" viewBox="0 0 85.02 44.43">
  <!-- Generator: Adobe Illustrator 29.7.1, SVG Export Plug-In . SVG Version: 2.1.1 Build 8)  -->
  <defs>
    <style>
      .st0 {
        stroke: #fff;
      }

      .st0, .st1, .st2 {
        stroke-miterlimit: 10;
      }

      .st0, .st2 {
        fill: #1d1d1b;
      }

      .st1 {
        fill: #fff;
      }

      .st1, .st2 {
        stroke: #1d1d1b;
      }
    </style>
  </defs>
  <path class="st2" d="M83.82,33.19c0,1.7-1.38,3.07-3.07,3.07h-14.72s-54.42-.04-54.42-.04h-7.47c-1.7,0-3.07-1.38-3.07-3.08v-7.33c0-2.75,1.98-5.1,4.69-5.57l10.91-2.71c1.93-.33,3.55-1.64,4.28-3.45l5.18-9.27c.86-2.14,2.94-3.53,5.24-3.53"/>
  <path class="st2" d="M83.81,33.65l.15-8.88c0-.42-.03-.84-.11-1.25l-4.06-20.43c-.24-1.21-1.31-2.08-2.54-2.08l-46.69.28"/>
  <path class="st1" d="M1.06,26.43h2.07c1.73,0,3.22-1.24,3.54-2.94l.65-3.51-2.11.48c-2.42.55-4.15,2.7-4.15,5.19v.78Z"/>
  <path class="st1" d="M83.87,30.09l.07-4.62h-2.9c-.12,0-.22.3-.22.67v3.28c0,.37.1.67.22.67h2.83Z"/>
  <path class="st1" d="M85.37,31.04"/>
  <path class="st1" d="M22.02,11.42"/>
  <path class="st1" d="M20.26,15.31h16.86c.7,0,1.56-1.11,1.56-2.49v-5.23c0-1.35-.83-2.46-1.87-2.49l-10.69-.29-5.86,10.5Z"/>
  <path class="st1" d="M60.24,6.79v6.23c0,1.45.91,2.29,2.04,2.29h14.73c1.39,0,2.16-1.77,1.93-3.46l-.92-5.26c-.3-1.09-1.06-1.77-1.93-1.77h-13.81c-1.12,0-2.04.53-2.04,1.97Z"/>
  <path class="st1" d="M69.73,15.31"/>
  <path class="st1" d="M41.1,7.41v5.81c0,1.43.85,1.99,1.9,1.99h12.83c1.3,0,1.83-.51,1.79-2.14l.04-6.5c0-1.26-.98-1.76-1.79-1.76h-12.87c-1.05,0-1.9,1.16-1.9,2.59Z"/>
  <path class="st1" d="M49.82,15.31"/>
  <line class="st1" x1="27.92" y1="36.27" x2="49.7" y2="36.27"/>
  <path class="st1" d="M111.44,45.51"/>
  <circle class="st0" cx="19.76" cy="36.27" r="8.16"/>
  <circle class="st0" cx="64.69" cy="36.27" r="8.16"/>
</svg>